<svg xmlns="http://www.w3.org/2000/svg" viewBox="0 0 120 120" fill="none">
  <!-- Outer circle -->
  <circle cx="60" cy="60" r="56" stroke="#C9A227" stroke-width="3" fill="none"/>
  <!-- Inner decorative ring -->
  <circle cx="60" cy="60" r="48" stroke="#C9A227" stroke-width="1" fill="none" opacity="0.4"/>
  <!-- Scissors icon (stylized) -->
  <path d="M42 45C42 41.6863 44.6863 39 48 39C51.3137 39 54 41.6863 54 45C54 47.0503 53.0186 48.8785 51.5 50.05L60 62L68.5 50.05C66.9814 48.8785 66 47.0503 66 45C66 41.6863 68.6863 39 72 39C75.3137 39 78 41.6863 78 45C78 48.3137 75.3137 51 72 51C71.4205 51 70.8584 50.9244 70.3231 50.7825L60 65L49.6769 50.7825C49.1416 50.9244 48.5795 51 48 51C44.6863 51 42 48.3137 42 45Z" fill="#C9A227"/>
  <!-- Razor blade accent -->
  <rect x="57" y="62" width="6" height="20" rx="2" fill="#C9A227" opacity="0.8"/>
  <!-- SHARP text -->
  <text x="60" y="100" text-anchor="middle" font-family="'Bebas Neue', 'Arial Black', sans-serif" font-size="18" font-weight="700" letter-spacing="6" fill="#C9A227">SHARP</text>
</svg>
